<?xml version="1.0" encoding="utf-8"?>
<!-- Generator: Adobe Illustrator 23.0.6, SVG Export Plug-In . SVG Version: 6.00 Build 0)  -->
<svg version="1.1" id="Capa_1" xmlns="http://www.w3.org/2000/svg" xmlns:xlink="http://www.w3.org/1999/xlink" x="0px" y="0px"
	 viewBox="0 0 480 480" style="enable-background:new 0 0 480 480;" xml:space="preserve">
<style type="text/css">
	.st0{fill:#03275A;}
</style>
<g>
	<g>
		<path class="st0" d="M472,308c4.4,0,8-3.6,8-8v-64c0-4.4-3.6-8-8-8H371.3l50.3-50.3c3.1-3.1,3.1-8.2,0-11.3l-43.7-43.7
			c-3.1-3.1-8.2-3.1-11.3,0c-12.5,12.5-32.8,12.5-45.3,0c-12.5-12.5-12.5-32.8,0-45.3c3.1-3.1,3.1-8.2,0-11.3l-35.7-35.7
			c-3.1-3.1-8.2-3.1-11.3,0L76.7,228H8c-4.4,0-8,3.6-8,8v64c0,4.4,3.6,8,8,8c17.7,0,32,14.3,32,32s-14.3,32-32,32c-4.4,0-8,3.6-8,8
			v64c0,4.4,3.6,8,8,8h464c4.4,0,8-3.6,8-8v-64c0-4.4-3.6-8-8-8c-17.7,0-32-14.3-32-32S454.3,308,472,308z M280,47.3l24.9,24.9
			c-15.4,21.6-10.4,51.5,11.2,67c16.7,11.9,39.1,11.9,55.8,0l32.9,32.9l-56,56h-25.4l18.3-18.3c3.1-3.1,3.1-8.2,0-11.3l-88-88
			c-3.1-3.1-8.2-3.1-11.3,0L124.7,228H99.3L280,47.3z M300.7,228H147.3L248,127.3l76.7,76.7L300.7,228z M424.6,348
			c3.4,20.2,19.2,36,39.4,39.4V436h-64v-32h-16v32H96v-8H80v8H16v-48.7c26.1-4.4,43.8-29.1,39.4-55.3c-3.4-20.2-19.2-36-39.4-39.4
			V244h64v24h16v-24h368v48.7C437.9,297.1,420.2,321.8,424.6,348z"/>
	</g>
</g>
<g>
	<g>
		<rect x="384" y="260" class="st0" width="16" height="32"/>
	</g>
</g>
<g>
	<g>
		<rect x="384" y="308" class="st0" width="16" height="32"/>
	</g>
</g>
<g>
	<g>
		<rect x="384" y="356" class="st0" width="16" height="32"/>
	</g>
</g>
<g>
	<g>
		<rect x="80" y="284" class="st0" width="16" height="32"/>
	</g>
</g>
<g>
	<g>
		<rect x="80" y="332" class="st0" width="16" height="32"/>
	</g>
</g>
<g>
	<g>
		<rect x="80" y="380" class="st0" width="16" height="32"/>
	</g>
</g>
<g>
	<g>
		<path class="st0" d="M352,284c-8.8,0-16-7.2-16-16c0-4.4-3.6-8-8-8H152c-4.4,0-8,3.6-8,8c0,8.8-7.2,16-16,16c-4.4,0-8,3.6-8,8v96
			c0,4.4,3.6,8,8,8c8.8,0,16,7.2,16,16c0,4.4,3.6,8,8,8h176c4.4,0,8-3.6,8-8c0-8.8,7.2-16,16-16c4.4,0,8-3.6,8-8v-96
			C360,287.6,356.4,284,352,284z M344,381c-11.3,2.9-20.1,11.7-23,23H159c-2.9-11.3-11.7-20.1-23-23v-82c11.3-2.9,20.1-11.7,23-23
			h162c2.9,11.3,11.7,20.1,23,23V381z"/>
	</g>
</g>
</svg>
