<?xml version="1.0" encoding="utf-8"?>
<!-- Generator: Adobe Illustrator 23.0.6, SVG Export Plug-In . SVG Version: 6.00 Build 0)  -->
<svg version="1.1" id="Capa_1" xmlns="http://www.w3.org/2000/svg" xmlns:xlink="http://www.w3.org/1999/xlink" x="0px" y="0px"
	 viewBox="0 0 512 512" style="enable-background:new 0 0 512 512;" xml:space="preserve">
<style type="text/css">
	.st0{fill:#021C40;}
</style>
<g>
	<g>
		<g>
			<path class="st0" d="M383.8,171.8c-7.9-8.3-21-8.7-29.3-0.8L222,296.7l-63.2-64.9c-8-8.2-21.1-8.4-29.4-0.4
				c-8.2,8-8.4,21.1-0.4,29.4l77.5,79.6c4.1,4.2,9.5,6.3,14.9,6.3c5.1,0,10.3-1.9,14.3-5.7l147.4-139.8
				C391.4,193.3,391.7,180.2,383.8,171.8z"/>
		</g>
	</g>
	<g>
		<g>
			<path class="st0" d="M256,0C114.8,0,0,114.8,0,256s114.8,256,256,256s256-114.8,256-256S397.2,0,256,0z M256,470.5
				c-118.3,0-214.5-96.2-214.5-214.5c0-118.3,96.2-214.5,214.5-214.5c118.3,0,214.5,96.2,214.5,214.5
				C470.5,374.3,374.3,470.5,256,470.5z"/>
		</g>
	</g>
</g>
</svg>
