<?xml version="1.0" encoding="utf-8"?>
<!-- Generator: Adobe Illustrator 23.0.6, SVG Export Plug-In . SVG Version: 6.00 Build 0)  -->
<svg version="1.1" id="Capa_1" xmlns="http://www.w3.org/2000/svg" xmlns:xlink="http://www.w3.org/1999/xlink" x="0px" y="0px"
	 viewBox="0 0 512 460" style="enable-background:new 0 0 512 460;" xml:space="preserve">
<style type="text/css">
	.st0{fill:#F37402;}
</style>
<g>
	<g>
		<g>
			<path class="st0" d="M407,359.2c-4.5-3.1-10.8-2-13.9,2.5c-3,4.4-6.5,8.7-10.3,12.7c-2.5,2.7-6,6-9.8,9.2
				c-4.2,3.6-4.7,9.9-1.1,14.1c2,2.3,4.8,3.5,7.6,3.5c2.3,0,4.6-0.8,6.5-2.4c4.4-3.8,8.4-7.5,11.4-10.8c4.4-4.7,8.5-9.8,12.1-15
				C412.7,368.6,411.6,362.4,407,359.2z"/>
		</g>
	</g>
	<g>
		<g>
			<path class="st0" d="M363.5,404.1c-2.3-5-8.3-7.2-13.3-4.8l-0.3,0.1c-5.1,2.2-7.3,8.1-5.1,13.2c1.6,3.7,5.3,6,9.2,6
				c1.3,0,2.7-0.3,4-0.9c0.2-0.1,0.5-0.2,0.7-0.3C363.7,415,365.8,409.1,363.5,404.1z"/>
		</g>
	</g>
	<g>
		<g>
			<path class="st0" d="M482.1,0H29.9C13.4,0,0,13.4,0,29.9v280.3C0,326.6,13.4,340,29.9,340h210.6c8.9,37.8,29.1,64.5,46.8,81.7
				c25.8,25,55.3,38.3,66.7,38.3c11.4,0,40.9-13.3,66.7-38.3c17.6-17.1,37.8-43.9,46.8-81.7h14.8c16.5,0,29.9-13.4,29.9-29.9V29.9
				C512,13.4,498.6,0,482.1,0z M452,299c0,52.7-24.3,87.6-44.7,107.7c-24.2,23.8-49,33-53.4,33.3c-4.3-0.3-29.2-9.5-53.4-33.3
				c-20.4-20-44.7-55-44.7-107.7v-49.2c34.4-10,66.6-23.6,98.1-41.5c30.8,17.5,64.4,31.7,98.1,41.5V299z M492,310.1
				c0,5.4-4.4,9.9-9.9,9.9h-11.3c0.8-6.7,1.2-13.7,1.2-21v-56.8c0-4.5-3-8.5-7.4-9.6c-36.3-9.9-72.9-25.2-105.7-44.4
				c-3.1-1.8-7-1.8-10.1,0c-33.7,19.8-68.3,34.3-105.7,44.4c-4.4,1.2-7.4,5.1-7.4,9.6V299c0,7.3,0.4,14.3,1.2,21H29.9
				c-5.4,0-9.9-4.4-9.9-9.9V140h472V310.1z M492,120H20V80h472V120z M492,60H20V29.9c0-5.4,4.4-9.9,9.9-9.9h452.3
				c5.4,0,9.9,4.4,9.9,9.9V60z"/>
		</g>
	</g>
	<g>
		<g>
			<path class="st0" d="M120,210c-6,0-12,1.2-17.5,3.5c-5.4-2.3-11.3-3.5-17.5-3.5c-24.8,0-45,20.2-45,45s20.2,45,45,45
				c6.2,0,12.1-1.3,17.5-3.5c5.5,2.3,11.5,3.5,17.5,3.5c24.8,0,45-20.2,45-45S144.8,210,120,210z M85,280c-13.8,0-25-11.2-25-25
				c0-13.8,11.2-25,25-25c13.8,0,25,11.2,25,25C110,268.8,98.8,280,85,280z M122.5,279.9c4.8-7.1,7.5-15.7,7.5-24.9
				s-2.8-17.7-7.5-24.9c12.6,1.2,22.5,11.9,22.5,24.9C145,267.9,135.1,278.6,122.5,279.9z"/>
		</g>
	</g>
	<g>
		<g>
			<path class="st0" d="M101.4,165H50c-5.5,0-10,4.5-10,10c0,5.5,4.5,10,10,10h51.4c5.5,0,10-4.5,10-10
				C111.4,169.5,107,165,101.4,165z"/>
		</g>
	</g>
	<g>
		<g>
			<path class="st0" d="M131,165h-0.5c-5.5,0-10,4.5-10,10c0,5.5,4.5,10,10,10h0.5c5.5,0,10-4.5,10-10C141,169.5,136.5,165,131,165z
				"/>
		</g>
	</g>
	<g>
		<g>
			<path class="st0" d="M408.8,276c-3.9-3.9-10.2-3.9-14.1,0l-53.5,53.5l-28-28c-3.9-3.9-10.2-3.9-14.1,0c-3.9,3.9-3.9,10.2,0,14.1
				l35.1,35.1c2,2,4.5,2.9,7.1,2.9s5.1-1,7.1-2.9l60.5-60.5C412.7,286.3,412.7,279.9,408.8,276z"/>
		</g>
	</g>
</g>
</svg>
