<?xml version="1.0" encoding="utf-8"?>
<!-- Generator: Adobe Illustrator 23.0.6, SVG Export Plug-In . SVG Version: 6.00 Build 0)  -->
<svg version="1.1" id="Camada_1" xmlns="http://www.w3.org/2000/svg" xmlns:xlink="http://www.w3.org/1999/xlink" x="0px" y="0px"
	 viewBox="0 0 667.6 217" style="enable-background:new 0 0 667.6 217;" xml:space="preserve">
<style type="text/css">
	.st0{fill:#FFFFFF;}
	.st1{fill:#F37402;}
</style>
<g>
	<g>
		<path class="st0" d="M48.5,60.4c-5.9-3.8-9.5-7-10.8-9.6c-1.3-2.7-2-6.6-2-11.9c0-4.1,0.6-7.1,1.8-9.2c1.2-2,2.9-3,5.2-3
			c2.1,0,3.6,0.7,4.5,2.2c0.9,1.5,1.4,5,1.4,10.4V51h35.5v-6.2c0-12.5-1.1-21.4-3.4-26.6c-2.3-5.2-6.9-9.6-13.9-13
			C59.8,1.7,51.4,0,41.5,0c-9.1,0-16.8,1.6-23.2,4.7C11.8,7.9,7.2,12.2,4.3,17.8C1.4,23.4,0,32.2,0,44.3c0,8.4,1,15.2,3,20.6
			c2,5.4,4.6,9.6,7.7,12.7c3.1,3.1,9.4,7.9,18.9,14.7c9.5,6.7,15.5,11.5,17.9,14.3c2.4,2.9,3.5,8.9,3.5,18.2c0,4.2-0.6,7.4-1.9,9.5
			c-1.2,2.1-3.1,3.2-5.7,3.2c-2.5,0-4.3-0.8-5.3-2.5c-1-1.7-1.5-5.5-1.5-11.4v-19.2H1.2v10.3c0,11.8,1.1,20.9,3.4,27.3
			c2.2,6.4,7,11.7,14.2,15.9c7.2,4.2,16,6.2,26.2,6.2c9.3,0,17.5-1.8,24.5-5.4c7-3.6,11.7-8.1,14.2-13.4c2.4-5.3,3.7-13.6,3.7-24.8
			c0-15.4-2.2-26.6-6.6-33.6C76.2,80.1,65.5,71.2,48.5,60.4"/>
		<path class="st0" d="M158.6,76.9l-5.4-40.1c-1.6-12.9-3.1-24-4.5-33.5H99.3v157.6h33.4l0-103.9l14,103.9h23.7l13.3-106.4l0,106.4
			h33.4V3.3h-49.7L158.6,76.9z"/>
		<path class="st0" d="M243.3,3.3l-19.5,157.6h39.5l2.3-28.3h13.7l2,28.3h39L298.5,3.3H243.3z M265.1,104.6c1-13.9,3.4-36,7.3-66.2
			c1.9,26.3,3.9,48.3,5.8,66.2H265.1z"/>
		<path class="st0" d="M411.1,96c-0.6-2.8-2.3-5.9-4.9-9.3c-2.6-3.4-7.7-6.1-15.2-8.1c8.3-0.8,13.9-3.4,16.8-7.6
			c2.8-4.2,4.3-12.5,4.3-24.7c0-13.4-2-23.2-6-29.3c-4-6.1-9.2-9.9-15.6-11.4c-6.4-1.5-18.6-2.2-36.6-2.2h-27v157.6H365v-71
			c5.3,0,8.5,1,9.8,3c1.2,2,1.9,7.2,1.9,15.7v52.4h12.2l23.3-23.3v-18.2C412.1,106.6,411.8,98.8,411.1,96 M376.6,51.1
			c0,6.9-0.9,11-2.6,12.3c-1.7,1.3-4.7,1.9-9,1.9v-35c4.4,0,7.5,0.8,9.1,2.3c1.7,1.6,2.5,4.8,2.5,9.8V51.1z"/>
		<polygon class="st0" points="503.8,34.8 503.8,3.3 420.3,3.3 420.3,34.8 442.9,34.8 442.9,106.7 481.1,68.5 481.1,34.8 		"/>
	</g>
	<g>
		<polygon class="st1" points="505.2,139.6 481.8,139.6 481.8,115.5 508,115.5 508,90.1 477.5,87.6 443.7,121.6 444,217 481.8,217 
			481.8,163.7 505.2,163.7 		"/>
		<path class="st1" d="M526.9,89.4l-15.7,126.9H543l1.8-22.8h11l1.6,22.8h31.4L571.3,89.4H526.9z M544.4,171
			c0.8-11.2,2.8-29,5.9-53.3c1.6,21.2,3.1,38.9,4.7,53.3H544.4z"/>
		<polygon class="st1" points="641.9,88.9 641.9,146.1 624.7,88.9 598.9,88.9 598.9,215.8 624.7,215.8 624.7,158.1 640.7,215.8 
			667.6,215.8 667.6,88.9 		"/>
	</g>
</g>
</svg>
