<?xml version="1.0" encoding="utf-8"?>
<!-- Generator: Adobe Illustrator 23.0.6, SVG Export Plug-In . SVG Version: 6.00 Build 0)  -->
<svg version="1.1" id="Layer_1" xmlns="http://www.w3.org/2000/svg" xmlns:xlink="http://www.w3.org/1999/xlink" x="0px" y="0px"
	 viewBox="0 0 252.9 196.5" style="enable-background:new 0 0 252.9 196.5;" xml:space="preserve">
<style type="text/css">
	.Arched_x0020_Green{fill:url(#SVGID_1_);stroke:#FFFFFF;stroke-width:0.25;stroke-miterlimit:1;}
	.st0{fill:#E2001D;}
	.st1{fill:#EA630D;}
	.st2{fill:#F5A100;}
</style>
<linearGradient id="SVGID_1_" gradientUnits="userSpaceOnUse" x1="-152.1316" y1="518.9644" x2="-151.4245" y2="518.2573">
	<stop  offset="0" style="stop-color:#259E2E"/>
	<stop  offset="0.9831" style="stop-color:#1C381D"/>
</linearGradient>
<g>
	<g>
		<path d="M43.3,176.4c-0.7-0.7-1.6-1.3-2.6-1.7c-1-0.4-2.1-0.6-3.3-0.6c-0.6,0-1.3,0.1-2,0.2c-0.7,0.1-1.3,0.3-2,0.6
			c-0.6,0.3-1.3,0.7-1.8,1.1c-0.6,0.5-1.1,1.1-1.5,1.8c-0.7-1.2-1.6-2.1-2.8-2.7c-1.2-0.7-2.6-1-4.1-1c-0.5,0-1,0-1.6,0.1
			c-0.6,0.1-1.1,0.3-1.6,0.5c-0.5,0.2-1.1,0.5-1.6,0.9c-0.5,0.4-0.9,0.9-1.3,1.5v-2.5h-4.3v20.7h4.4v-11.5c0-0.9,0.1-1.7,0.4-2.3
			c0.3-0.7,0.7-1.3,1.1-1.7c0.5-0.5,1-0.8,1.6-1c0.6-0.2,1.3-0.4,2-0.4c1.5,0,2.6,0.5,3.4,1.4c0.8,0.9,1.2,2.3,1.2,4v11.5h4.4v-11.5
			c0-0.9,0.1-1.7,0.4-2.3c0.3-0.7,0.7-1.3,1.1-1.7c0.5-0.5,1-0.8,1.6-1c0.6-0.2,1.3-0.4,2-0.4c1.5,0,2.6,0.5,3.4,1.4
			c0.8,0.9,1.2,2.3,1.2,4v11.5h4.4v-13c0-1.2-0.2-2.3-0.6-3.3C44.6,178,44.1,177.2,43.3,176.4z"/>
		<path d="M66.5,177.2c-0.7-0.9-1.6-1.7-2.7-2.2c-1.1-0.6-2.3-0.8-3.8-0.8c-1.5,0-2.8,0.3-4.1,0.8c-1.3,0.5-2.3,1.3-3.3,2.3
			c-0.9,1-1.7,2.1-2.2,3.4c-0.5,1.3-0.8,2.8-0.8,4.4c0,1.6,0.3,3,0.8,4.4c0.5,1.3,1.3,2.5,2.2,3.4c0.9,1,2,1.7,3.3,2.3
			c1.3,0.5,2.6,0.8,4.1,0.8c1.5,0,2.8-0.3,3.8-0.8c1.1-0.5,2-1.3,2.7-2.2v2.5H71v-20.7h-4.5V177.2z M66.3,187.6
			c-0.3,0.8-0.7,1.5-1.3,2.1c-0.5,0.6-1.2,1.1-2,1.4c-0.8,0.3-1.6,0.5-2.5,0.5c-1,0-1.9-0.2-2.6-0.5c-0.8-0.4-1.4-0.8-2-1.4
			c-0.5-0.6-0.9-1.3-1.2-2.1c-0.3-0.8-0.4-1.7-0.4-2.6c0-0.9,0.1-1.8,0.4-2.6c0.3-0.8,0.7-1.5,1.2-2.1c0.5-0.6,1.2-1.1,2-1.4
			c0.8-0.4,1.6-0.5,2.6-0.5c0.9,0,1.8,0.2,2.5,0.5c0.8,0.3,1.4,0.8,2,1.4c0.5,0.6,1,1.3,1.3,2.1c0.3,0.8,0.5,1.7,0.5,2.6
			S66.6,186.8,66.3,187.6z"/>
		<path d="M91.7,185c-1.3-1-3-1.6-5.3-2l-2.1-0.3c-0.5-0.1-0.9-0.2-1.3-0.2c-0.4-0.1-0.8-0.2-1.1-0.4c-0.3-0.2-0.5-0.4-0.7-0.6
			c-0.2-0.2-0.3-0.5-0.3-0.9c0-0.7,0.3-1.3,1-1.8c0.7-0.5,1.6-0.7,2.9-0.7c0.6,0,1.3,0.1,1.9,0.2c0.6,0.1,1.2,0.3,1.8,0.4
			c0.6,0.2,1.1,0.4,1.5,0.6c0.5,0.2,0.8,0.4,1.2,0.6l1.9-3.5c-1.1-0.7-2.3-1.2-3.8-1.6c-1.4-0.4-3-0.6-4.6-0.6
			c-1.3,0-2.5,0.2-3.6,0.5c-1.1,0.3-1.9,0.7-2.7,1.3c-0.7,0.6-1.3,1.3-1.7,2.1c-0.4,0.8-0.6,1.7-0.6,2.8c0,1.7,0.6,3,1.8,4
			c1.2,1,2.9,1.7,5.2,2l2.2,0.3c1.2,0.2,2.1,0.5,2.7,0.8c0.6,0.4,0.9,0.9,0.9,1.5c0,0.8-0.4,1.4-1.2,1.8c-0.8,0.5-2,0.7-3.5,0.7
			c-0.8,0-1.6-0.1-2.3-0.2c-0.7-0.1-1.3-0.3-1.8-0.5c-0.6-0.2-1.1-0.4-1.5-0.7c-0.4-0.3-0.8-0.5-1.2-0.8l-2.1,3.4
			c0.7,0.6,1.5,1,2.4,1.4c0.8,0.3,1.6,0.6,2.4,0.8c0.8,0.2,1.5,0.3,2.2,0.4c0.7,0.1,1.3,0.1,1.9,0.1c1.5,0,2.8-0.2,4-0.5
			c1.2-0.3,2.2-0.8,3-1.4c0.8-0.6,1.4-1.3,1.8-2.1c0.4-0.8,0.6-1.7,0.6-2.7C93.6,187.3,93,186,91.7,185z"/>
		<path d="M134,177.1c-0.9-1-1.9-1.7-3.1-2.2c-1.2-0.5-2.5-0.8-4-0.8c-1.5,0-2.9,0.3-4.2,0.8c-1.3,0.5-2.3,1.3-3.3,2.2
			c-0.9,1-1.6,2.1-2.1,3.4c-0.5,1.3-0.8,2.8-0.8,4.4c0,1.6,0.3,3.1,0.8,4.5c0.5,1.3,1.2,2.5,2.2,3.4c0.9,1,2.1,1.7,3.3,2.2
			c1.3,0.5,2.7,0.8,4.3,0.8c1.6,0,3.1-0.2,4.5-0.6c1.4-0.4,2.8-1.2,4-2.3l-2.2-3.2c-0.9,0.7-1.8,1.2-2.9,1.6c-1,0.4-2.1,0.6-3.1,0.6
			c-0.7,0-1.4-0.1-2.1-0.3c-0.7-0.2-1.3-0.5-1.8-0.9c-0.5-0.4-1-1-1.4-1.6c-0.4-0.7-0.7-1.5-0.8-2.4h15.3c0-0.3,0.1-0.5,0.1-0.8
			c0-0.3,0-0.6,0-0.9c0-1.6-0.2-3.1-0.7-4.4C135.5,179.2,134.9,178.1,134,177.1z M121.4,183.2c0.1-0.7,0.3-1.4,0.6-2.1
			c0.3-0.6,0.7-1.2,1.1-1.6c0.5-0.5,1-0.8,1.6-1c0.6-0.2,1.3-0.4,2.1-0.4c1.4,0,2.6,0.4,3.5,1.3c0.9,0.9,1.5,2.1,1.7,3.8H121.4z"/>
		<path d="M194,177.2c-0.7-0.9-1.6-1.7-2.7-2.2c-1.1-0.6-2.3-0.8-3.8-0.8c-1.5,0-2.8,0.3-4.1,0.8c-1.3,0.5-2.3,1.3-3.3,2.3
			c-0.9,1-1.7,2.1-2.2,3.4c-0.5,1.3-0.8,2.8-0.8,4.4c0,1.6,0.3,3,0.8,4.4c0.5,1.3,1.3,2.5,2.2,3.4c0.9,1,2,1.7,3.3,2.3
			c1.3,0.5,2.6,0.8,4.1,0.8c1.5,0,2.8-0.3,3.8-0.8s2-1.3,2.7-2.2v2.5h4.5v-20.7H194V177.2z M193.8,187.6c-0.3,0.8-0.7,1.5-1.3,2.1
			c-0.5,0.6-1.2,1.1-2,1.4c-0.8,0.3-1.6,0.5-2.5,0.5c-1,0-1.9-0.2-2.6-0.5s-1.4-0.8-2-1.4c-0.5-0.6-0.9-1.3-1.2-2.1
			c-0.3-0.8-0.4-1.7-0.4-2.6c0-0.9,0.1-1.8,0.4-2.6c0.3-0.8,0.7-1.5,1.2-2.1c0.5-0.6,1.2-1.1,2-1.4c0.8-0.4,1.6-0.5,2.6-0.5
			c0.9,0,1.8,0.2,2.5,0.5c0.8,0.3,1.4,0.8,2,1.4c0.5,0.6,1,1.3,1.3,2.1c0.3,0.8,0.5,1.7,0.5,2.6S194.1,186.8,193.8,187.6z"/>
		<path d="M111.1,191.2c-0.7,0.3-1.4,0.4-2.1,0.4c-0.5,0-0.9-0.1-1.3-0.2c-0.4-0.1-0.7-0.4-1-0.7c-0.3-0.3-0.5-0.7-0.7-1.2
			c-0.2-0.5-0.3-1.1-0.3-1.8v-9h7.2v-4.1h-7.2v-6.3h-4.5v6.3H97v4.1h4.1v9.1c0,2.7,0.7,4.8,2,6.1c1.3,1.3,3.1,2,5.5,2
			c1.3,0,2.5-0.2,3.5-0.6c0.7-0.3,1.3-0.6,1.9-0.9l-1.5-3.8C112,190.8,111.6,191,111.1,191.2z"/>
		<path d="M151.8,174.1c-1.3,0-2.4,0.2-3.4,0.7c-1,0.5-1.9,1.6-2.6,2.6v-2.7h-4.1v20.7h4.1V184c0-0.9,0.1-1.7,0.4-2.4
			c0.2-0.7,0.6-1.3,1-1.7c0.4-0.5,1-0.8,1.6-1.1c0.6-0.2,1.3-0.4,2-0.4c0.5,0,1.1,0.1,1.8,0.2c0.3,0.1,0.6,0.1,0.9,0.2l1.3-4.3
			c-0.4-0.1-0.7-0.2-1.1-0.3C153.2,174.2,152.5,174.1,151.8,174.1z"/>
		<path d="M214.6,174.1c-1.3,0-2.4,0.2-3.4,0.7c-1,0.5-1.9,1.6-2.6,2.6v-2.7h-4.1v20.7h4.1V184c0-0.9,0.1-1.7,0.4-2.4
			c0.2-0.7,0.6-1.3,1-1.7c0.4-0.5,1-0.8,1.6-1.1c0.6-0.2,1.3-0.4,2-0.4c0.5,0,1.1,0.1,1.8,0.2c0.3,0.1,0.6,0.1,0.9,0.2l1.3-4.3
			c-0.4-0.1-0.7-0.2-1.1-0.3C215.9,174.2,215.3,174.1,214.6,174.1z"/>
		<path d="M235.7,166.3v10.9c-0.7-0.9-1.6-1.7-2.7-2.2c-1.1-0.6-2.3-0.8-3.8-0.8c-1.5,0-2.8,0.3-4.1,0.8c-1.3,0.5-2.3,1.3-3.3,2.3
			c-0.9,1-1.7,2.1-2.2,3.4c-0.5,1.3-0.8,2.8-0.8,4.4c0,1.6,0.3,3,0.8,4.4c0.5,1.3,1.3,2.5,2.2,3.4c0.9,1,2,1.7,3.3,2.3
			c1.3,0.5,2.6,0.8,4.1,0.8c1.5,0,2.8-0.3,3.8-0.8c1.1-0.5,2-1.3,2.7-2.2v2.5h4.5v-29.1H235.7z M235.5,187.6
			c-0.3,0.8-0.7,1.5-1.3,2.1c-0.5,0.6-1.2,1.1-2,1.4c-0.8,0.3-1.6,0.5-2.5,0.5c-1,0-1.9-0.2-2.6-0.5c-0.8-0.4-1.4-0.8-2-1.4
			c-0.5-0.6-0.9-1.3-1.2-2.1c-0.3-0.8-0.4-1.7-0.4-2.6c0-0.9,0.1-1.8,0.4-2.6c0.3-0.8,0.7-1.5,1.2-2.1c0.5-0.6,1.2-1.1,2-1.4
			c0.8-0.4,1.6-0.5,2.6-0.5c0.9,0,1.8,0.2,2.5,0.5c0.8,0.3,1.4,0.8,2,1.4c0.5,0.6,1,1.3,1.3,2.1c0.3,0.8,0.5,1.7,0.5,2.6
			S235.8,186.8,235.5,187.6z"/>
		<path d="M162.6,180.2c0.6-0.6,1.3-1,2.1-1.4c0.8-0.3,1.6-0.5,2.6-0.5v0c1,0,2,0.2,2.8,0.5c0.8,0.3,1.6,0.7,2.2,1.3l2.2-3.6
			c-0.8-0.7-1.7-1.2-2.8-1.6c-1.4-0.6-2.8-0.8-4.4-0.8c-1.6,0-3.1,0.3-4.4,0.8c-1.4,0.6-2.5,1.3-3.5,2.3c-1,1-1.8,2.1-2.3,3.4
			c-0.6,1.3-0.8,2.8-0.8,4.3c0,1.6,0.3,3,0.8,4.3c0.6,1.3,1.3,2.5,2.3,3.4c1,1,2.2,1.7,3.5,2.3c1.4,0.6,2.8,0.8,4.4,0.8
			c1.6,0,3.1-0.3,4.4-0.8c1-0.4,1.9-0.9,2.8-1.6l-2.2-3.6c-0.6,0.6-1.3,1-2.2,1.3c-0.9,0.3-1.8,0.5-2.8,0.5v0
			c-0.9,0-1.8-0.2-2.6-0.5c-0.8-0.3-1.5-0.8-2.1-1.4c-0.6-0.6-1-1.3-1.4-2.1c-0.3-0.8-0.5-1.7-0.5-2.7c0-1,0.2-1.9,0.5-2.7
			C161.6,181.5,162.1,180.8,162.6,180.2z"/>
	</g>
	<g>
		<path d="M249.7,192.3c0.3,0,0.6,0.1,0.8,0.2c0.3,0.1,0.5,0.3,0.7,0.5c0.2,0.2,0.3,0.4,0.5,0.7c0.1,0.3,0.2,0.5,0.2,0.8
			c0,0.3-0.1,0.6-0.2,0.8c-0.1,0.3-0.3,0.5-0.5,0.7c-0.2,0.2-0.4,0.3-0.7,0.5c-0.3,0.1-0.5,0.2-0.8,0.2c-0.3,0-0.6-0.1-0.9-0.2
			c-0.3-0.1-0.5-0.3-0.7-0.5c-0.2-0.2-0.3-0.4-0.5-0.7c-0.1-0.3-0.2-0.5-0.2-0.8c0-0.3,0.1-0.6,0.2-0.8c0.1-0.3,0.3-0.5,0.5-0.7
			c0.2-0.2,0.4-0.3,0.7-0.5C249.1,192.4,249.4,192.3,249.7,192.3z M249.7,196c0.2,0,0.4,0,0.6-0.1c0.2-0.1,0.3-0.2,0.5-0.3
			c0.1-0.1,0.2-0.3,0.3-0.5c0.1-0.2,0.1-0.4,0.1-0.6c0-0.2,0-0.4-0.1-0.6c-0.1-0.2-0.2-0.3-0.3-0.5c-0.1-0.1-0.3-0.2-0.5-0.3
			c-0.2-0.1-0.4-0.1-0.6-0.1c-0.2,0-0.4,0-0.6,0.1c-0.2,0.1-0.3,0.2-0.5,0.3c-0.1,0.1-0.2,0.3-0.3,0.5c-0.1,0.2-0.1,0.4-0.1,0.6
			c0,0.2,0,0.4,0.1,0.6c0.1,0.2,0.2,0.3,0.3,0.5c0.1,0.1,0.3,0.2,0.5,0.3C249.3,195.9,249.5,196,249.7,196z M249.8,193.5
			c0.3,0,0.5,0.1,0.6,0.2c0.1,0.1,0.2,0.3,0.2,0.5c0,0.2,0,0.3-0.1,0.4c-0.1,0.1-0.2,0.2-0.4,0.2l0.6,0.7H250l-0.5-0.7h-0.1v0.7
			h-0.5v-1.9H249.8z M249.4,194v0.3h0.4c0.1,0,0.1,0,0.2,0c0,0,0.1-0.1,0.1-0.1c0-0.1,0-0.1-0.1-0.1c0,0-0.1,0-0.2,0H249.4z"/>
	</g>
	<g>
		<path class="st0" d="M96.7,78c0-24.8,11.6-46.8,29.6-61.1C113,6.3,96.2,0,78,0C34.9,0,0,34.9,0,78s34.9,78,78,78
			c18.3,0,35.1-6.3,48.4-16.8C108.3,124.8,96.7,102.7,96.7,78z"/>
		<ellipse class="st1" cx="126.3" cy="78" rx="29.6" ry="61.1"/>
		<path class="st2" d="M247.4,120.1v-2.3h-0.9v-0.6h2.5v0.6H248v2.3H247.4z M252.2,120.1v-2l-0.7,1.7h-0.7l-0.7-1.7v2h-0.7v-2.9h1
			l0.7,1.9l0.7-1.9h1v2.9H252.2z"/>
		<path class="st2" d="M174.7,0c-18.3,0-35.1,6.3-48.4,16.8c18,14.3,29.6,36.3,29.6,61.1s-11.6,46.8-29.6,61.1
			c13.3,10.5,30.1,16.8,48.4,16.8c43.1,0,78-34.9,78-78S217.7,0,174.7,0z"/>
	</g>
</g>
</svg>
