<?xml version="1.0" encoding="utf-8"?>
<!-- Generator: Adobe Illustrator 23.0.6, SVG Export Plug-In . SVG Version: 6.00 Build 0)  -->
<svg version="1.1" id="Layer_1" xmlns="http://www.w3.org/2000/svg" xmlns:xlink="http://www.w3.org/1999/xlink" x="0px" y="0px"
	 viewBox="0 0 400 367" style="enable-background:new 0 0 400 367;" xml:space="preserve">
<style type="text/css">
	.st0{fill:#0099BE;}
</style>
<g>
	<path class="st0" d="M110.3,265.4L57.1,159.9c-7.9-15.6-64.2,12.8-56.4,28.4l81.3,161.3c5.4,10.6,16.3,17.4,28.2,17.4c0,0,0,0,0,0
		c11.9,0,22.8-6.7,28.2-17.3l16.6-33.2l-35.4-70L110.3,265.4z"/>
	<path class="st0" d="M265.9,97.7c7.9-15.6-48.5-44.1-56.4-28.4l-43.3,84.9l35.4,69.9L265.9,97.7z"/>
	<path class="st0" d="M342.9,4.5L211.1,265l-75-148.3c-7.9-15.6-64.2,12.8-56.4,28.4l103.1,204.1c5.4,10.6,16.3,17.4,28.2,17.4
		c0,0,0,0,0,0c11.9,0,22.8-6.7,28.2-17.3L399.3,33C407.1,17.4,350.8-11.1,342.9,4.5z"/>
</g>
</svg>
