<?xml version="1.0" encoding="utf-8"?>
<!-- Generator: Adobe Illustrator 23.0.6, SVG Export Plug-In . SVG Version: 6.00 Build 0)  -->
<svg version="1.1" id="Layer_1" xmlns="http://www.w3.org/2000/svg" xmlns:xlink="http://www.w3.org/1999/xlink" x="0px" y="0px"
	 viewBox="0 0 564.2 666.4" style="enable-background:new 0 0 564.2 666.4;" xml:space="preserve">
<style type="text/css">
	.Arched_x0020_Green{fill:url(#SVGID_1_);stroke:#FFFFFF;stroke-width:0.25;stroke-miterlimit:1;}
	.st0{fill-rule:evenodd;clip-rule:evenodd;fill:#1866AC;}
</style>
<linearGradient id="SVGID_1_" gradientUnits="userSpaceOnUse" x1="-15.5187" y1="753.9023" x2="-14.8115" y2="753.1952">
	<stop  offset="0" style="stop-color:#259E2E"/>
	<stop  offset="0.9831" style="stop-color:#1C381D"/>
</linearGradient>
<g>
	<path d="M455.4,139.6h-96.6c-10.7,0-19.4,8.7-19.4,19.4v220.7c0,10.2,8.9,18.5,19.7,18.5h116c41.4,0,75.3-31.7,75.3-70.5
		c0-27.5-17-51.5-41.7-63.1c12.8-13.3,20.7-31.3,20.7-51.1C529.3,172.8,496,139.6,455.4,139.6z M509.6,323.5
		c0,19.9-16.3,36.2-36.2,36.2h-94.1V176.5h74.2c19.3,0,35,15.8,35,35c0,17.5-13,32-29.7,34.6v0.4H422c-11.2,0-20.3,9.1-20.3,20.3
		c0,11.2,9.1,20.3,20.3,20.3h36.8v0.1h14.6C493.4,287.3,509.6,303.6,509.6,323.5z"/>
	<path d="M115.1,666.4L115.1,666.4L115.1,666.4c7.7,0,14.7-3.2,19.7-8.2c5.1-5.1,8.2-12.1,8.2-19.7h0v0v-33.6c0-3.4-2.8-6.2-6.2-6.2
		c-3.4,0-6.2,2.8-6.2,6.2v33.6v0h0c0,4.3-1.7,8.1-4.6,10.9c-2.8,2.8-6.7,4.6-10.9,4.6v0h0h0v0c-4.3,0-8.1-1.8-10.9-4.6
		c-2.8-2.8-4.6-6.7-4.6-11h0v0v-33.6c0-3.4-2.8-6.2-6.2-6.2c-3.4,0-6.2,2.8-6.2,6.2v33.6v0h0c0,7.7,3.1,14.7,8.2,19.7
		C100.4,663.2,107.4,666.4,115.1,666.4L115.1,666.4L115.1,666.4z"/>
	<path d="M189.4,666.4c3.4,0,6.2-2.8,6.2-6.2c0-3.4-2.8-6.2-6.2-6.2h-17.2v0c-3,0-5.7-1.2-7.7-3.2c-2-2-3.2-4.7-3.2-7.7h0v0v-38.2
		c0-3.4-2.8-6.2-6.2-6.2c-3.4,0-6.2,2.8-6.2,6.2V643v0h0c0,6.4,2.6,12.3,6.8,16.5c4.2,4.2,10.1,6.9,16.5,6.9v0H189.4z"/>
	<path d="M32.2,401.7c12.8,1.4,24.2-7.9,25.6-20.7l19.1-175.5l67.6,171.8l0.1,0.3l0,0.1l0.1,0.3l0.1,0.3l0.1,0.2l0.1,0.3l0.1,0.3
		l0.1,0.2l0.2,0.4l0,0l0.2,0.4l0.1,0.2c0.7,1.3,1.5,2.5,2.5,3.6l0.1,0.1c0.2,0.3,0.4,0.5,0.7,0.8l0,0c0.2,0.2,0.4,0.4,0.6,0.6
		c0.2,0.2,0.4,0.4,0.6,0.6v0c0.3,0.2,0.5,0.5,0.8,0.7l0.1,0.1c1.1,0.9,2.3,1.8,3.6,2.5l0.2,0.1l0.3,0.2l0.1,0l0.4,0.2l0.2,0.1
		l0.3,0.1l0.3,0.1l0.3,0.1l0.3,0.1l0.3,0.1l0.1,0l0.3,0.1c2.5,1,5.1,1.5,7.6,1.6l0.3,0l0.3,0h0.2h0.2l0.3,0l0.3,0
		c2.3-0.1,4.6-0.5,6.8-1.3l0.2-0.1l0.3-0.1l0.2-0.1l0.1,0l0.2-0.1l0.2-0.1l0.2-0.1l0.3-0.1l0.3-0.1l0.3-0.1l0.3-0.1l0.2-0.1l0.4-0.2
		l0,0l0.4-0.2l0.1-0.1c1.5-0.8,2.8-1.8,4-2.9l0.4-0.3l0.1-0.1c1.9-1.7,3.5-3.8,4.7-6.2l0.1-0.1l0.2-0.3l0.1-0.2l0.2-0.3l0.1-0.2
		l0.2-0.4l0-0.1l0.2-0.4l0.2-0.4v0v0l0.1-0.2l67.6-171.6L274.6,381c1.4,12.8,12.8,22,25.6,20.7c12.8-1.4,22.1-12.8,20.7-25.6
		l-22.5-206.9l0-0.1l0-0.1h0c-0.3-2.4-0.8-4.8-1.5-7.2c-0.7-2.3-1.7-4.5-2.8-6.7c-5.7-10.8-16.3-18.4-28.9-20.1l0,0
		c-0.4-0.1-0.8-0.1-1.3-0.1c-2-0.2-3.9-0.3-5.9-0.2l-0.1,0v0c-2.5,0.1-4.9,0.4-7,0.9c-12,2.8-22.3,11.2-27.1,23.4l-57.6,146.2
		L108.6,159c-4.8-12.2-15-20.6-27.1-23.4c-2.2-0.5-4.5-0.8-7-0.9v0l-0.1,0c-1.9-0.1-3.9,0-5.9,0.2c-0.4,0-0.8,0.1-1.3,0.1l0,0
		c-12.6,1.7-23.2,9.3-28.9,20.1c-1.2,2.2-2.1,4.5-2.8,6.7c-0.7,2.4-1.2,4.8-1.5,7.2h0l0,0.1v0.1L11.5,376.1
		C10.1,388.9,19.4,400.4,32.2,401.7z"/>
	<path d="M5.5,666.4c3.4,0.4,6.5-2,6.9-5.4l5.3-44.8l19,44.1c0.6,1.4,1.7,2.6,3.2,3.3c3.2,1.4,6.8-0.1,8.2-3.3l19-44.1l5.3,44.8
		c0.4,3.4,3.5,5.8,6.9,5.4c3.4-0.4,5.8-3.5,5.4-6.9l-6.2-52l0-0.1c0-0.3-0.1-0.6-0.1-0.8c-0.1-0.4-0.2-0.8-0.3-1.2
		c-0.2-0.6-0.5-1.2-0.8-1.8c-1.6-2.7-4.4-4.5-7.7-5h0v0l0,0c-0.2,0-0.3,0-0.5,0l0,0c-0.4,0-0.9,0-1.3,0c-0.6,0-1.2,0.1-1.8,0.3
		c-3.2,0.7-5.9,2.8-7.3,5.9L42.4,642l-16.1-37.4c-0.1-0.2-0.2-0.5-0.3-0.7c-0.2-0.4-0.5-0.8-0.7-1.2c-0.4-0.5-0.8-1-1.3-1.5
		c-2.2-2.1-5.4-3.2-8.7-2.7l-0.1,0h0l0,0c-0.7,0.1-1.3,0.2-1.8,0.4c-0.2,0.1-0.3,0.1-0.5,0.2c-0.4,0.2-0.8,0.3-1.2,0.5
		c-3,1.5-5,4.3-5.4,7.7l-6.2,52C-0.4,662.9,2.1,666,5.5,666.4z"/>
	<path d="M210.4,666.4c3.4,0,6.2-2.8,6.2-6.2V611h17.7c3.4,0,6.2-2.8,6.2-6.2c0-3.4-2.8-6.2-6.2-6.2h-23.9h-23.9
		c-3.4,0-6.2,2.8-6.2,6.2c0,3.4,2.8,6.2,6.2,6.2h17.7v49.2C204.1,663.6,206.9,666.4,210.4,666.4z"/>
	<path d="M242.9,604.8v55.4c0,3.4,2.8,6.2,6.2,6.2c3.4,0,6.2-2.8,6.2-6.2v-55.4c0-3.4-2.8-6.2-6.2-6.2
		C245.7,598.6,242.9,601.4,242.9,604.8z"/>
	<path d="M340.7,637.2c0,3.4,2.8,6.2,6.2,6.2h21.6l2.2,17.6c0.4,3.4,3.5,5.8,6.9,5.4c3.4-0.4,5.8-3.5,5.4-6.9l-4.3-34.6v-0.1
		c0-0.2-0.1-0.4-0.1-0.6c-0.3-1.8-0.6-3.5-1.1-5.1c-0.5-1.8-1.2-3.5-2.1-5.3c-4.5-9-12.9-15.3-23.7-15.3h-0.1v0
		c-2.1,0-4.1,0.2-6,0.7c-2,0.5-3.8,1.1-5.5,2c-8.5,4.3-14.2,13.4-15.4,23.6l-3.9,34.6c-0.4,3.4,2.1,6.5,5.5,6.9
		c3.4,0.4,6.5-2.1,6.9-5.5l3.9-34.6c0.7-6.1,3.9-11.4,8.7-13.9c0.9-0.5,1.8-0.8,2.8-1c1-0.2,2.1-0.4,3.1-0.4v0h0.1
		c5.7,0,10.1,3.5,12.6,8.4c0.5,1,0.9,2.1,1.3,3.3c0.3,1.1,0.6,2.1,0.7,3.2c0,0.1,0,0.3,0,0.4v0.1l0.6,4.6h-20
		C343.5,630.9,340.7,633.7,340.7,637.2z"/>
	<path d="M445,664.3c0.2-0.1,0.4-0.1,0.5-0.2l0,0l0.1,0c0.3-0.1,0.5-0.2,0.8-0.4c0.5-0.3,0.9-0.5,1.3-0.9c2-1.7,3.2-4.1,3.2-6.8
		v-51.2c0-3.4-2.8-6.2-6.2-6.2s-6.2,2.8-6.2,6.2v40.7l-33.1-42.2c-1.6-2.1-4-3.3-6.6-3.4h-0.1h0c-0.6,0-1.1,0-1.5,0.1v0l0,0
		c-0.2,0-0.4,0.1-0.7,0.1c-0.3,0.1-0.6,0.1-0.9,0.2c-2.1,0.7-3.8,2.2-4.9,4.1h0l0,0c-0.2,0.4-0.4,0.8-0.5,1.1l0,0v0
		c-0.2,0.6-0.4,1.3-0.5,2c-0.1,0.3-0.1,0.7-0.1,1.1v0v51.4c0,3.4,2.8,6.2,6.2,6.2c3.4,0,6.2-2.8,6.2-6.2v-41l33.1,42.2l0.1,0.1h0
		l0,0l0.2,0.2c0.3,0.3,0.5,0.6,0.8,0.8c0.4,0.4,0.8,0.7,1.2,0.9c0.3,0.2,0.5,0.3,0.8,0.4C440.3,665,442.7,665.1,445,664.3L445,664.3
		L445,664.3L445,664.3L445,664.3z"/>
	<path d="M480.9,611h18.3c3.4,0,6.2-2.8,6.2-6.2c0-3.4-2.8-6.2-6.2-6.2h-18.3h0v0c-6.7,0-12.9,2.7-17.3,7.2
		c-4.4,4.4-7.2,10.6-7.2,17.3h0v0v18.7v0h0c0,6.8,2.8,12.9,7.2,17.3c4.4,4.4,10.6,7.2,17.3,7.2v0h18.3c3.4,0,6.2-2.8,6.2-6.2
		c0-3.4-2.8-6.2-6.2-6.2h-18.3v0c-3.3,0-6.3-1.4-8.5-3.6c-2.2-2.2-3.6-5.2-3.6-8.6h0v0v-18.7v0h0c0-3.3,1.4-6.3,3.6-8.5
		C474.5,612.4,477.6,611,480.9,611L480.9,611L480.9,611z"/>
	<path d="M535.2,598.6L535.2,598.6L535.2,598.6L535.2,598.6c-8,0-15.2,3.1-20.4,8.1c-5.3,5.1-8.6,12.1-8.6,19.9h0v0v11.6v0h0
		c0,7.8,3.3,14.8,8.6,19.9c5.2,5,12.5,8.2,20.4,8.2v0h0h0v0c7.9,0,15.1-3.1,20.4-8.2c5.3-5.1,8.6-12.1,8.6-19.9h0v0v-11.6v0h0
		c0-7.8-3.3-14.8-8.6-19.9C550.4,601.8,543.2,598.6,535.2,598.6z M551.8,638.3c0,4.2-1.8,8.1-4.8,11c-3,2.9-7.2,4.7-11.8,4.7v0h0h0
		v0c-4.6,0-8.8-1.8-11.8-4.7c-2.9-2.8-4.8-6.7-4.8-11h0v0v-11.6v0h0c0-4.2,1.8-8.1,4.8-11c3-2.9,7.2-4.7,11.8-4.7v0h0v0
		c4.6,0,8.8,1.8,11.8,4.7c2.9,2.8,4.8,6.7,4.8,11h0v0L551.8,638.3L551.8,638.3L551.8,638.3z"/>
	<path d="M291.1,598.6h-24h0v0c-0.1,0-0.3,0-0.4,0c-1.6,0.1-3,0.8-4.1,1.8l0,0l-0.1,0.1c-0.6,0.6-1.1,1.3-1.4,2.1
		c-0.3,0.8-0.5,1.6-0.5,2.5l0,0v27v28.1c0,3.4,2.8,6.2,6.2,6.2h30.3h0v0c5.6,0,10.6-2.3,14.3-5.9c3.7-3.7,5.9-8.7,5.9-14.3h0l0,0v0
		h0c0-5.4-2.1-10.3-5.5-13.9c-0.1-0.1-0.3-0.3-0.4-0.4c-1.1-1.1-2.3-2-3.5-2.8c1.9-3.1,3.1-6.7,3.1-10.6h0l0,0v0h0
		c0-5.5-2.2-10.4-5.8-14C301.5,600.9,296.5,598.6,291.1,598.6L291.1,598.6L291.1,598.6z M296.3,613.2c1.4,1.4,2.2,3.2,2.2,5.3h0v0
		l0,0h0c0,2-0.8,3.9-2.2,5.2l0,0l0,0c-1.2,1.2-2.9,2-4.7,2.2h-0.5h0h-2.3c-3.4,0-6.2,2.8-6.2,6.2c0,3.4,2.8,6.2,6.2,6.2h2.3h0h6v0
		c2.1,0,4.1,0.9,5.5,2.3l0.2,0.2c1.3,1.4,2.1,3.3,2.1,5.3h0v0l0,0h0c0,2.1-0.9,4.1-2.3,5.5c-1.4,1.4-3.4,2.3-5.5,2.3v0h0h-24v-21.9
		V611h18h0v0C293.1,611,295,611.9,296.3,613.2z"/>
	<g>
		<path class="st0" d="M115.9,0h338.4h17.9c25,0,45.5,21.7,45.5,48.2v23c0,32.5-44.1,32.4-44.1,0.2V58.8c0-8-6.6-14.5-14.5-14.5
			l-357,0c-8,0-14.5,6.5-14.5,14.5v12.3c0,32.4-42,32.1-42,0.7V48.2C45.5,21.7,66,0,91,0H115.9L115.9,0z M279.2,537.1h231
			c52.8,0,53.3-56.1,47.9-83.8c-2.9-18.6-34.6-18.5-38,0v21.6c0,9.9-8.1,17.9-17.9,17.9h-223h-17.8H59.2c-9.9,0-17.9-8.1-17.9-17.9
			v-21.6c-3.5-18.4-35.1-18.6-38,0c-5.4,27.7-4.8,83.8,47.9,83.8h210.2H279.2z"/>
	</g>
</g>
</svg>
