<?xml version="1.0" encoding="utf-8"?>
<!-- Generator: Adobe Illustrator 23.0.6, SVG Export Plug-In . SVG Version: 6.00 Build 0)  -->
<svg version="1.1" id="Camada_1" xmlns="http://www.w3.org/2000/svg" xmlns:xlink="http://www.w3.org/1999/xlink" x="0px" y="0px"
	 viewBox="0 0 619.5 450.7" style="enable-background:new 0 0 619.5 450.7;" xml:space="preserve">
<style type="text/css">
	.st0{clip-path:url(#SVGID_4_);fill:#03275A;}
</style>
<g>
	<defs>
		<rect id="SVGID_1_" x="177.8" y="60.4" width="201.5" height="226.1"/>
	</defs>
	<clipPath id="SVGID_2_">
		<use xlink:href="#SVGID_1_"  style="overflow:visible;"/>
	</clipPath>
</g>
<g>
	<defs>
		<path id="SVGID_3_" d="M0,450.7h7.5c11.3-5.9,19-18,19-31.9c0-4.3-0.8-8.4-2.1-12.2l11.4-5l2.1,49.1h2.9l-2.2-50.4l42.2-18.6
			c2.6,4.9,7.5,8.4,13.2,8.9c6.1,0.6,11.7-2.3,15-7.1l31.4,24.1c-3,3.8-4.8,8.6-4.8,13.9c0,1.2,0.1,2.3,0.3,3.4l-48.3,7.2
			c-0.5-3-3-5.3-6-5.3c-3.4,0-6.1,2.9-6.1,6.4c0,2.7,1.6,5,3.9,5.9l-3.8,11.6h3.1l3.7-11.2c2.5-0.3,4.5-2.3,5.1-4.8l48.9-7.3
			c1.4,5.3,4.7,9.8,9,12.7l-4.5,10.7h2.4l4-9.5c2.8,1.5,6,2.3,9.3,2.3c5.2,0,10-2,13.7-5.3l10.6,12.5h3l-12-14.1
			c2.3-2.5,4-5.7,4.9-9.1l28.3,0.9c0.1,1,0.4,1.9,0.8,2.8c0.7,2,1.8,3.7,3.4,5.1c0.5,0.4,0.9,0.7,1.4,1.1l-1,13.4h2.2l0.9-12.4
			c4.6,1.6,9.9,0,13.3-4.5c2-2.7,2.9-5.9,2.9-9.1l25.2-7c0.9,2.4,2.3,4.6,4.2,6.3c5.2,4.6,12.7,4.5,18.2,0.3l14,20.8
			c-0.2,0.2-0.4,0.4-0.5,0.6c-1.1,1.5-1.8,3.2-2,4.9h17.3c0-0.6-0.1-1.3-0.3-1.9l41-25.6c0.2,0.2,0.3,0.4,0.5,0.5
			c0.6,0.8,1.4,1.4,2.2,1.9c0.7,0.4,1.4,0.6,2.2,0.7l0.5,24.4h2l-0.5-24.5c1.8-0.3,3.5-1.4,4.6-3.1c0.1-0.1,0.2-0.3,0.3-0.4
			l62.7,24.7c-0.5,1.1-0.7,2.2-0.6,3.3h15.1c0-0.2,0-0.4,0-0.6c0-3.3-2.1-6.1-5-7.1l4.1-16.9c0.6,0.1,1.2,0.2,1.8,0.2
			c6.2,0,11.3-5.2,11.3-11.7c0-1.4-0.3-2.7-0.7-4l18.4-8.1c0.9,1.6,2.4,2.7,4.3,2.9c3,0.3,5.6-2,5.9-5.1c0.1-1.9-0.6-3.6-1.9-4.7
			l11-22.5c0.4,0.1,0.8,0.2,1.2,0.2c1.7,0,3.2-1.1,3.8-2.6l37.9,9.3c-0.1,0.4-0.1,0.7-0.1,1.1c0,3.2,2.5,5.8,5.5,5.8
			c3,0,5.5-2.6,5.5-5.8c0-2.1-1.1-4-2.8-5l7.7-20.9c0.3,0.1,0.6,0.1,0.9,0.1c3,0,5.5-2.6,5.5-5.8c0-1.4-0.5-2.8-1.3-3.8l15.6-18.4
			c2.7,1.8,6.1,1.7,8.5-0.6c2.9-2.8,3.1-7.8,0.4-11.2c-1.3-1.6-2.9-2.5-4.7-2.8l-1.3-17c1.4-0.3,2.7-1,3.9-2.1
			c3.1-2.9,3.8-7.7,2-11.7l12.8-7c0.1,0.1,0.2,0.3,0.3,0.4c1.9,2.4,5.2,2.8,7.3,0.8l17.9,9.6c-0.1,0.3-0.1,0.5-0.1,0.8
			c0,2.4,1.9,4.3,4.1,4.3c2.3,0,4.1-1.9,4.1-4.3c0-2.4-1.9-4.3-4.1-4.3c-1.2,0-2.3,0.5-3,1.4l-17.6-9.4c0.8-2,0.5-4.5-0.9-6.3
			c-2-2.5-5.3-2.8-7.4-0.8c-1.7,1.6-2.1,4.3-1.2,6.6l-12.8,6.9c-0.3-0.4-0.6-0.9-0.9-1.3c-3.4-4.3-9.3-4.9-13-1.3
			c-0.8,0.8-1.4,1.7-1.9,2.7l-14.9-8.2c0.4-1.5,0.2-3.2-0.7-4.6c-1.5-2.2-4.3-2.8-6.2-1.2c-1.9,1.5-2.3,4.6-0.8,6.8
			c1.5,2.2,4.3,2.8,6.2,1.2c0.4-0.3,0.7-0.7,1-1.1l14.9,8.2c-1.1,3.3-0.5,7.3,1.9,10.3c2,2.5,4.7,3.7,7.4,3.6l1.3,16.8
			c-1.4,0.1-2.7,0.7-3.9,1.8c-2.9,2.8-3.1,7.8-0.4,11.2c0.2,0.2,0.4,0.4,0.5,0.6l-15.5,18.4c-0.8-0.6-1.8-0.9-2.8-1l-8.6-19
			c0.6-0.6,1-1.4,1-2.3c0-1.7-1.3-3-2.9-3c-1.6,0-2.9,1.4-2.9,3c0,1.7,1.3,3,2.9,3c0.2,0,0.4,0,0.5-0.1l8.4,18.5
			c-2.4,0.6-4.2,2.9-4.2,5.6c0,2.3,1.3,4.3,3.1,5.2l-7.7,20.8c-0.4-0.1-0.9-0.2-1.4-0.2c-2.1,0-4,1.3-4.9,3.1l-38.1-9.3
			c0-0.1,0-0.1,0-0.2c0-2.4-1.9-4.4-4.2-4.4c-2.3,0-4.2,1.9-4.2,4.4c0,1.4,0.6,2.7,1.6,3.5l-10.9,22.3c-0.6-0.3-1.2-0.5-1.9-0.5
			c-3-0.3-5.6,2-5.9,5.1c0,0.6,0,1.2,0.1,1.8l-18.5,8.1c-1.9-3.7-5.7-6.3-10-6.3c-3.6,0-6.8,1.7-8.8,4.4l-14.8-12
			c1-1.5,1.6-3.3,1.6-5.2c0-2.9-1.3-5.4-3.3-7.1l17.7-21c0.8,0.5,1.7,0.8,2.7,0.8c2.9,0,5.2-2.4,5.2-5.4c0-1.6-0.7-3-1.7-4
			l30.3-27.8c0.5,0.3,1,0.5,1.6,0.5c1.6,0,2.9-1.4,2.9-3c0-1.7-1.3-3-2.9-3c-1.6,0-2.9,1.4-2.9,3c0,0.5,0.1,0.9,0.3,1.3l-30.6,28.1
			c-0.7-0.3-1.4-0.5-2.2-0.5c-0.4,0-0.7,0-1,0.1l-3.7-18.4c2.3-0.7,3.9-2.9,3.9-5.5c0-3.2-2.5-5.8-5.5-5.8c-3,0-5.5,2.6-5.5,5.8
			s2.5,5.8,5.5,5.8c0,0,0.1,0,0.1,0l3.8,18.7c-1.6,0.9-2.8,2.7-2.8,4.8c0,1.4,0.5,2.7,1.3,3.6l-17.8,21.1c-1.3-0.8-2.8-1.2-4.4-1.2
			c-4.9,0-8.9,4.1-8.9,9.2c0,5.1,4,9.2,8.9,9.2c2.3,0,4.4-0.9,6-2.4l15.1,12.1c-0.8,1.6-1.3,3.5-1.3,5.5c0,5.3,3.4,9.8,8.1,11.2
			l-4.1,16.9c-0.2,0-0.5,0-0.7,0c-1.4,0-2.7,0.4-3.8,1.1c-0.9,0.3-1.7,0.8-2.3,1.5l-62.9-24.8c0.3-0.9,0.5-1.8,0.5-2.8
			c0-4.4-3.4-8.1-7.7-8.1c-4.3,0-7.7,3.6-7.7,8.1c0,1.2,0.3,2.3,0.7,3.3l-40.6,25.4c-0.5-0.9-1.1-1.8-1.9-2.5
			c-2.9-2.6-7.1-2.6-10.2-0.3l-14-20.8c0.6-0.6,1.2-1.2,1.7-1.9c5.5-7.3,4.7-17.8-1.7-23.5c-1.4-1.2-2.9-2.1-4.5-2.7l7.9-27.9
			c0.1,0,0.2,0,0.3,0c4.8,0.3,9-3.7,9.2-8.9c0.2-3.3-1.3-6.3-3.6-8.2l14-35.8c1.4,0.5,2.8,0.9,4.4,1c2.1,0.1,4.2-0.2,6.1-1
			l12.6,26.2c-1.5,1.2-2.4,3-2.6,5.1c-0.2,3.8,2.5,7.1,6.1,7.3c3.5,0.2,6.6-2.7,6.8-6.5c0.2-3.8-2.5-7.1-6.1-7.3
			c-0.8,0-1.5,0.1-2.2,0.3l-12.5-26.1c3.1-1.8,5.6-4.8,6.8-8.4l39.9,11.9c0,0.2,0,0.4-0.1,0.5c-0.2,3.8,2.5,7.1,6.1,7.3
			c3.5,0.2,6.6-2.7,6.8-6.5c0.2-3.8-2.5-7.1-6.1-7.3c-2.6-0.2-4.9,1.4-6,3.7l-39.9-11.9c0.2-0.8,0.3-1.7,0.3-2.6
			c0.2-3.3-0.6-6.4-2.1-9.1L348,272c1.9,2.3,4.6,3.8,7.6,4c6,0.4,11.1-4.6,11.4-11.1c0.3-6.5-4.3-12-10.3-12.3c-0.6,0-1.2,0-1.8,0.1
			l-4-19.9c2.4-1.1,4.4-3.1,5.7-5.7l29.2,11.7c-0.6,3.9,1.3,7.7,4.7,9.1c3.9,1.5,8.2-0.7,9.7-5.1c0.6-1.8,0.6-3.8,0.1-5.5l17.9-11
			c0.7,0.7,1.7,1.1,2.7,1.1c2.2,0,4-1.9,4-4.2c0-2.3-1.8-4.2-4-4.2c-2.2,0-4,1.9-4,4.2c0,0.3,0,0.7,0.1,1l-17.8,10.9
			c-0.8-1.3-2-2.4-3.5-3c-3.4-1.4-7.2,0.3-9.1,3.7l-29.1-11.7c1.1-4.6-0.2-9.3-3.2-12.4l19-31c0.1,0.1,0.3,0.1,0.4,0.2
			c1.8,0.7,3.8,0,4.9-1.7l11.4,4.6c-0.3,2.2,0.8,4.4,2.7,5.1c2.2,0.9,4.7-0.4,5.5-2.9c0.8-2.5-0.3-5.2-2.5-6.1
			c-2-0.8-4.3,0.2-5.3,2.3l-11.2-4.5c0.3-1.1,0.3-2.2-0.1-3.2l12.6-11.1c0.2,0.2,0.5,0.4,0.8,0.6c1.4,0.6,3-0.3,3.6-1.9
			c0.5-1.6-0.2-3.4-1.6-3.9c-1.4-0.6-3,0.3-3.6,1.9c-0.2,0.7-0.2,1.4,0,2l-12.6,11.1c-0.5-0.6-1-1-1.7-1.3c-1.2-0.5-2.4-0.3-3.4,0.3
			l-9.8-12c0.1-0.2,0.2-0.4,0.3-0.7c0.3-1,0-1.9-0.5-2.6l11.9-24.3c0.4,0.1,0.8,0.2,1.2,0.2c1.7,0,3.2-1.1,3.8-2.6l37.9,9.3
			c-0.1,0.4-0.1,0.7-0.1,1.1c0,3.2,2.5,5.8,5.5,5.8c3,0,5.5-2.6,5.5-5.8c0-2.1-1.1-4-2.8-5l7.7-20.9c0.3,0.1,0.6,0.1,0.9,0.1
			c1.6,0,3.1-0.8,4.1-2l19.2,5.6c0,0,0,0,0,0c0,1.7,1.3,3,2.9,3c1.6,0,2.9-1.4,2.9-3c0-1.7-1.3-3-2.9-3c-1.1,0-2,0.6-2.5,1.5
			l-18.7-5.5c0.3-0.7,0.5-1.5,0.5-2.4c0-1.4-0.5-2.7-1.3-3.8l16.2-19.2c0.8,0.5,1.7,0.8,2.7,0.8c2.9,0,5.2-2.4,5.2-5.4
			c0-3-2.3-5.4-5.2-5.4c-2.9,0-5.2,2.4-5.2,5.4c0,1.4,0.5,2.7,1.4,3.6l-16.2,19.2c-0.9-0.6-1.9-1-3-1c-3,0-5.5,2.6-5.5,5.8
			c0,2.3,1.3,4.3,3.1,5.2l-7.7,20.8c-0.4-0.1-0.9-0.2-1.4-0.2c-2.1,0-4,1.3-4.9,3.1l-38.1-9.3c0-0.1,0-0.1,0-0.2
			c0-2.4-1.9-4.4-4.2-4.4c-2.3,0-4.2,2-4.2,4.4c0,1.4,0.6,2.7,1.6,3.5l-11.8,24.2c-1.2-0.3-2.5,0.5-2.9,1.9c-0.4,1.4,0.3,3,1.6,3.4
			c0.6,0.2,1.2,0.1,1.7-0.1l9.7,11.9c-0.4,0.5-0.7,1-0.9,1.6c-0.5,1.5-0.3,3.1,0.4,4.3l-19.1,31.1c-0.6-0.4-1.3-0.8-2.1-1.1
			c-4.6-1.8-9.5-0.2-12.6,3.7l-16.1-12.3c0.8-1.6,0.6-3.7-0.6-5.3c-1.6-2.1-4.3-2.4-6.1-0.8c-0.3,0.3-0.6,0.6-0.8,1
			c0,0-0.1,0.1-0.1,0.1l-15-7c0.9-3.3,0.1-7.2-2.5-9.9c-2.1-2.3-4.8-3.3-7.5-3l-2.2-16.3c1.4-0.2,2.6-0.9,3.7-2
			c2.7-2.9,2.6-7.8-0.2-10.9c-2.8-3.1-7.3-3.2-10-0.3c-2.7,2.9-2.6,7.8,0.2,10.9c1.3,1.5,3,2.2,4.7,2.4l2.2,16.6
			c-1.4,0.4-2.6,1.2-3.7,2.3c-2.8,3.1-3.2,7.8-1.3,11.6l-12.1,7.7c-0.1-0.1-0.2-0.3-0.3-0.4c-2.1-2.3-5.3-2.4-7.3-0.2
			c-2,2.1-1.9,5.7,0.2,8c2.1,2.3,5.3,2.4,7.3,0.2c1.6-1.7,1.8-4.4,0.8-6.5l12.1-7.7c0.3,0.4,0.6,0.8,0.9,1.2
			c3.6,3.9,9.3,4.1,12.8,0.4c0.7-0.8,1.3-1.7,1.7-2.7l14.9,6.9c0,0.1,0,0.1-0.1,0.2c-0.8,2.5,0.3,5.2,2.5,6.1
			c1.1,0.4,2.2,0.3,3.2-0.2c0.4-0.1,0.8-0.3,1.1-0.5l16.3,12.5c-0.3,0.6-0.6,1.3-0.9,2.1c-2.2,6.6,0.7,13.9,6.6,16.3
			c2.1,0.8,4.2,0.9,6.2,0.4l4,19.6c-4.2,1.4-7.3,5.5-7.5,10.5c-0.1,1.7,0.2,3.4,0.8,4.9l-28.4,19c-2.5-2.7-5.8-4.5-9.6-4.8
			l-6.1-30.5c1.6-0.7,2.8-2.4,2.9-4.4c0.1-2.8-1.8-5.1-4.4-5.3c-2.6-0.2-4.8,2-4.9,4.7c-0.1,2.7,1.7,5,4.2,5.2l6,30.2
			c-3.7,0.3-7.1,2-9.6,4.8l-9.9-8.3c0.5-0.9,0.8-1.9,0.8-3c0.2-3.8-2.5-7.1-6.1-7.3c-3.5-0.2-6.6,2.7-6.8,6.5
			c-0.2,3.8,2.5,7.1,6.1,7.3c1.7,0.1,3.3-0.5,4.5-1.7l9.9,8.3c-1.7,2.5-2.7,5.4-2.9,8.7c0,0.1,0,0.1,0,0.2l-29.5-0.7
			c0-0.1,0-0.2-0.1-0.3c-0.1-0.6-0.3-1.2-0.6-1.7c-1.3-2.5-4.4-3.2-6.8-1.7c-2.4,1.5-3.2,4.8-1.9,7.3c0.3,0.5,0.6,0.9,1,1.3
			l-9.9,16.9c-3.2-1.7-7.3-1.4-10.6,1.2c-2.7,2.1-4.2,5.2-4.4,8.5l-17-0.3c0-1.7-0.4-3.3-1.4-4.8c-2.5-3.8-7.5-4.6-11.2-1.7
			c-3.7,2.9-4.6,8.3-2.1,12.1c2.5,3.8,7.5,4.6,11.2,1.7c1.7-1.3,2.8-3.2,3.3-5.3l17.3,0.3c0.2,1.7,0.7,3.4,1.7,4.9
			c2.6,4,7.4,5.3,11.6,3.7l5.6,16c-0.2,0.1-0.3,0.2-0.4,0.3c-2.7,2.1-3.4,6-1.6,8.8c1.8,2.8,5.5,3.3,8.1,1.2c2.7-2.1,3.4-6,1.6-8.8
			c-1.5-2.2-4.1-3-6.5-2.1l-5.6-16c0.5-0.3,1-0.6,1.4-0.9c4.7-3.6,5.9-10.5,2.7-15.3c-0.7-1.1-1.5-1.9-2.5-2.6l9.8-16.9
			c1.4,0.7,3.2,0.6,4.7-0.3c0.1,0,0.1-0.1,0.2-0.1c1-0.6,1.8-1.6,2.2-2.7l29.8,0.7c0.5,4.8,2.9,9,6.5,11.7l-14.1,36
			c-0.4-0.1-0.9-0.2-1.3-0.2c-4.8-0.3-9,3.7-9.2,8.9c-0.2,4.4,2.3,8.2,6,9.5l-7.8,27.8c-5.3-1-11.1,1.1-14.9,6.2
			c-3.1,4.2-4.2,9.4-3.4,14.2l-24.8,6.9c-0.6-2.4-1.9-4.7-3.8-6.4c-5-4.4-12.6-3.4-16.9,2.4c-1.8,2.4-2.7,5.3-2.9,8.1l-27.8-0.8
			c0.2-1.2,0.3-2.3,0.3-3.5c0-8-4.1-15-10.2-18.8l12.8-30.9c1.2,0.3,2.5,0.5,3.8,0.5c8,0,14.5-6.8,14.5-15.1
			c0-8.4-6.5-15.1-14.5-15.1c-8,0-14.5,6.8-14.5,15.1c0,5.3,2.7,10,6.7,12.7l-12.7,30.8c-2.1-0.8-4.4-1.2-6.8-1.2
			c-5.5,0-10.4,2.2-14.2,5.7l-32-24.6c0.8-1.8,1.3-3.8,1.5-5.8c0.6-7.7-3.8-14.7-10.3-17.5l8.2-34.3c1.2,0.2,2.4,0.3,3.7,0.3
			c12.8,0,23.2-10.7,23.2-24c0-2.9-0.5-5.6-1.4-8.2l37.9-16.7c1.8,3.3,5,5.6,8.9,6c6.2,0.6,11.6-4.1,12.1-10.5
			c0.5-6.4-4.1-12-10.3-12.6c-0.4,0-0.8,0-1.3,0l-3.2-20.2c2.4-1,4.5-2.9,5.9-5.4l28.7,13.1c-0.7,3.8,1,7.8,4.4,9.3
			c3.8,1.7,8.2-0.3,9.9-4.6c0.4-1.1,0.6-2.2,0.6-3.4l27.8-3.2c0.8,2.7,3.2,4.6,6,4.6c3.4,0,6.2-2.9,6.2-6.5c0-3.6-2.8-6.5-6.2-6.5
			c-3.3,0-6,2.7-6.2,6l-27.8,3.2c-0.6-2.3-2.1-4.2-4.2-5.1c-3.4-1.5-7.2-0.1-9.2,3.2l-28.6-13.1c1.3-4.5,0.2-9.3-2.6-12.6l20.2-30
			c0.1,0.1,0.3,0.1,0.4,0.2c1.8,0.8,3.8,0.2,5-1.4l11.2,5.1c-0.4,2.2,0.6,4.4,2.5,5.3c2.2,1,4.7-0.2,5.6-2.6
			c0.9-2.4-0.1-5.2-2.2-6.2c-2-0.9-4.3,0-5.4,2.1l-11-5c0.4-1.1,0.4-2.2,0.1-3.2l11.2-9c1.5,1,3.3,1.6,5.3,1.6c5.4,0,9.7-4.5,9.7-10
			c0-4.5-2.8-8.2-6.7-9.5l6.5-26.9c0.9,0.1,1.8,0.2,2.7,0.2c9.4,0,16.9-7.8,16.9-17.5c0-2.1-0.4-4.1-1-6l27.7-12.2
			c1.3,2.4,3.7,4.1,6.5,4.4c2.5,0.2,4.8-0.7,6.5-2.4l11.3,9.1c-0.7,1.3-1.1,2.8-1.1,4.4c0,4.3,2.8,7.9,6.5,9l-3.5,14.5
			c-0.2,0-0.3,0-0.5,0c-2.9,0-5.2,2.4-5.2,5.4c0,3,2.3,5.4,5.2,5.4c2.9,0,5.2-2.4,5.2-5.4c0-2.4-1.5-4.4-3.6-5.1l3.5-14.4
			c0.5,0.1,0.9,0.1,1.4,0.1c5,0,9.1-4.2,9.1-9.4c0-1.1-0.2-2.2-0.6-3.2l14.8-6.5c0.7,1.3,2,2.2,3.5,2.3c2.4,0.2,4.5-1.6,4.7-4.1
			c0.2-2.3-1.3-4.3-3.4-4.8l-0.3-19.9c2.6-0.4,4.7-2.8,4.7-5.7c0-3.2-2.5-5.8-5.5-5.8s-5.5,2.6-5.5,5.8c0,3,2.1,5.4,4.9,5.7
			l0.3,19.8c-2,0.2-3.7,1.9-3.9,4.1c0,0.5,0,1,0.1,1.4l-14.9,6.5c-1.5-3-4.5-5-8-5c-2.9,0-5.4,1.4-7.1,3.5l-11.1-9
			c0.7-1.1,1.2-2.5,1.3-3.9c0.4-4.7-3-8.8-7.5-9.2c-0.9-0.1-1.8,0-2.7,0.2l-3.1-24.9c2.8-0.7,4.9-3.4,4.9-6.5c0-1.3-0.4-2.6-1-3.6
			l22.9-19.6c1,1.2,2.4,2,4,2c2.9,0,5.2-2.4,5.2-5.4s-2.3-5.4-5.2-5.4c-2.9,0-5.2,2.4-5.2,5.4c0,0.7,0.1,1.5,0.4,2.1l-23,19.7
			c-1.2-1.2-2.7-1.9-4.5-1.9c-3.5,0-6.4,3-6.4,6.7c0,3.7,2.9,6.7,6.4,6.7c0,0,0.1,0,0.1,0l3.1,25.2c-2.6,1.2-4.5,3.8-4.7,6.9
			c-0.1,0.9,0,1.8,0.2,2.7l-27.7,12.2c-2.8-5.6-8.5-9.4-15-9.4c-5.4,0-10.1,2.6-13.2,6.6l-22.2-17.9c1.5-2.2,2.3-4.9,2.3-7.8
			c0-4.4-2-8.2-5-10.7L216,45.1c1,1.2,2.4,2,4,2c2.9,0,5.2-2.4,5.2-5.4c0-3-2.3-5.4-5.2-5.4c-0.1,0-0.2,0-0.3,0L216.1,15
			c3.9,0,7.1-3.4,7.1-7.5c0-4.1-3.2-7.5-7.2-7.5c-4,0-7.2,3.3-7.2,7.5c0,3.6,2.4,6.6,5.7,7.3l3.7,21.7c-2,0.7-3.5,2.8-3.5,5.1
			c0,0.7,0.1,1.4,0.4,2.1l-15.5,17.4c-2-1.3-4.5-2.1-7.1-2.1c-7.4,0-13.3,6.2-13.3,13.8c0,7.6,6,13.8,13.3,13.8
			c3.4,0,6.6-1.4,8.9-3.6l22.6,18.2c-1.3,2.4-2,5.2-2,8.2c0,7.9,5.1,14.6,12.2,16.8l-6.5,27c-0.3,0-0.6,0-0.9,0
			c-5.4,0-9.7,4.5-9.7,10c0,2.9,1.2,5.6,3.2,7.4l-10.7,8.6c-0.4-0.6-1-1.1-1.7-1.4c-1.1-0.5-2.4-0.4-3.4,0.1l-9.2-12.4
			c0.1-0.2,0.2-0.4,0.3-0.6c0.5-1.4-0.2-3-1.5-3.5c-1.3-0.5-2.7,0.3-3.1,1.7c-0.5,1.4,0.2,3,1.5,3.5c0.6,0.2,1.2,0.2,1.7,0l9.2,12.4
			c-0.4,0.4-0.8,1-1,1.6c-0.6,1.5-0.4,3,0.2,4.3l-20.3,30.1c-0.6-0.5-1.3-0.9-2-1.2c-4.5-2-9.5-0.6-12.7,3.1l-14.2-12
			c0.5-1,0.8-2.1,0.9-3.2c0.6-5.2-2.7-10-7.4-10.7c-3-0.4-5.9,0.9-7.8,3.3L107.5,176c0.6-1.5,1-3,1.2-4.7c0.3-2.3,0.1-4.6-0.4-6.7
			l25-11.6c1,1.7,2.6,2.9,4.5,3.2c3.5,0.5,6.7-2.2,7.1-6c0.2-1.3,0-2.6-0.5-3.7l11.1-7c0.3,0.4,0.6,0.8,0.9,1.2
			c3.6,3.9,9.3,4.1,12.8,0.4c0.7-0.8,1.3-1.7,1.7-2.7l15,7c-0.3,1.5,0,3.1,1,4.4c1.6,2.1,4.3,2.4,6.1,0.8c1.8-1.6,2-4.6,0.4-6.7
			c-1.6-2.1-4.3-2.4-6.1-0.8c-0.4,0.3-0.6,0.7-0.9,1.1l-15.1-7c0.9-3.3,0.1-7.2-2.4-9.9c-2.1-2.3-4.8-3.3-7.5-3l-2.2-16.3
			c1.4-0.2,2.6-0.9,3.7-2c2.7-2.9,2.6-7.8-0.2-10.9c-2.8-3.1-7.3-3.2-10-0.3c-2.7,2.9-2.6,7.8,0.2,10.9c1.3,1.5,3,2.2,4.7,2.4
			l2.2,16.6c-1.3,0.4-2.6,1.2-3.7,2.3c-2.8,3.1-3.2,7.8-1.3,11.6l-11,7c-1-1.6-2.5-2.8-4.4-3c-3.5-0.5-6.7,2.2-7.1,6
			c-0.1,0.8-0.1,1.7,0.1,2.4l-24.9,11.6c-1.4-3.5-4-6.4-7.2-8.1l14-42.4c0.2,0,0.3,0.1,0.5,0.1c3.5,0.5,6.7-2.2,7.1-6
			c0.5-3.8-2-7.3-5.4-7.8c-3.5-0.5-6.7,2.2-7.1,6c-0.3,2.8,0.9,5.4,2.9,6.8l-14,42.4c-0.8-0.2-1.5-0.5-2.3-0.6
			c-3-0.4-5.9,0.2-8.5,1.5l-15-31.9c2.3-1.8,3.9-4.6,4.3-7.9c0.8-6.5-3.3-12.4-9.2-13.3c-5.9-0.9-11.3,3.7-12.1,10.2
			c-0.8,6.5,3.3,12.4,9.2,13.3c1.6,0.2,3.1,0.1,4.6-0.4l15.2,32.3c-2.7,2.5-4.5,5.9-5.1,10l-28.4,4.2c-0.5-1.8-1.9-3.3-3.8-3.5
			c-2.5-0.4-4.8,1.6-5.2,4.4c-0.3,2.8,1.4,5.3,3.9,5.7c2.4,0.4,4.7-1.5,5.1-4.1l28.1-4.2c0,4.1,1.3,7.9,3.6,10.8L74.3,190
			c-0.8-0.6-1.7-1-2.7-1.1c-3.5-0.5-6.7,2.2-7.1,6c-0.5,3.8,2,7.3,5.4,7.8c3.5,0.5,6.7-2.2,7.1-6c0.2-1.9-0.2-3.6-1.2-5l8.3-10.1
			c2.1,2,4.8,3.4,7.8,3.8c0.1,0,0.1,0,0.2,0l-2.9,32c-2.1,0.2-3.9,2-4.2,4.4c-0.3,2.8,1.4,5.3,3.9,5.7c2.5,0.4,4.8-1.6,5.2-4.4
			c0.3-2.3-0.9-4.4-2.7-5.3l3-32.3c4.4-0.1,8.5-2.5,11.2-6.2l31.9,18.1c-0.1,0.5-0.2,0.9-0.3,1.4c-0.6,5.2,2.7,10,7.5,10.7
			c2.9,0.4,5.7-0.8,7.5-3l14.1,11.9c-0.4,0.6-0.7,1.3-1,2c-2.5,6.5,0.1,13.9,5.9,16.6c2,0.9,4.2,1.1,6.2,0.7l3.2,19.8
			c-4.6,1.1-8.2,5.1-8.6,10.3c-0.1,1.3,0,2.5,0.3,3.7l-38,16.8c-3.9-7.6-11.6-12.9-20.6-12.9c-7.4,0-13.9,3.5-18.2,9.1l-30.5-24.6
			c2-3,3.2-6.7,3.2-10.7c0-10.4-8.2-18.9-18.3-18.9c-9.3,0-17,7.2-18.1,16.5L1.1,246c0.2-1.3,0.3-2.7,0.3-4.1c0-3-0.5-5.8-1.4-8.5
			l0,16.9c0.2-0.5,0.4-1.1,0.5-1.7l31.2,0.9c0.1,8,5.1,14.7,11.9,17.3l-2.8,23.4c0,0,0,0,0,0c-5.1,0-9.2,4.3-9.2,9.6
			c0,5.3,4.1,9.6,9.2,9.6c5.1,0,9.2-4.3,9.2-9.6c0-4.5-3-8.3-7-9.3l2.7-23c1.3,0.3,2.8,0.5,4.2,0.5c4.7,0,9-1.9,12.3-4.9l31,25
			c-1.7,3.4-2.7,7.2-2.7,11.2c0,10.9,7,20.1,16.7,23L99,356.5c-0.7-0.2-1.4-0.3-2.1-0.3c-9.2-0.9-17.3,6.2-18,15.7
			c-0.1,1.9,0,3.7,0.4,5.4l-40.8,18l-1.1-26c1.9-1.1,3.1-3.1,3.1-5.5c0-3.5-2.7-6.3-6-6.3c-1.1,0-2.2,0.3-3.1,0.9l-18.4-23.4
			c1-1.2,1.6-2.8,1.6-4.5c0-3.8-3-6.9-6.6-6.9c-3.6,0-6.6,3.1-6.6,6.9c0,3.1,2,5.7,4.7,6.6l-6,38.8L0,450.7z M22.6,402.2
			c-4.4-8.7-12.2-15.3-21.6-18l7.2-47c1.1,0,2.1-0.4,3-0.9l18.5,23.4c-0.8,1.1-1.3,2.4-1.3,3.9c0,3.5,2.7,6.3,6,6.3l1.1,26.5
			L22.6,402.2"/>
	</defs>
	<clipPath id="SVGID_4_">
		<use xlink:href="#SVGID_3_"  style="overflow:visible;"/>
	</clipPath>
	
		<rect x="-73.3" y="-139.5" transform="matrix(0.8066 -0.5911 0.5911 0.8066 -73.2962 226.6797)" class="st0" width="766.1" height="729.7"/>
</g>
</svg>
