<?xml version="1.0" encoding="utf-8"?>
<!-- Generator: Adobe Illustrator 23.0.6, SVG Export Plug-In . SVG Version: 6.00 Build 0)  -->
<svg version="1.1" id="Capa_1" xmlns="http://www.w3.org/2000/svg" xmlns:xlink="http://www.w3.org/1999/xlink" x="0px" y="0px"
	 viewBox="0 0 512 512" style="enable-background:new 0 0 512 512;" xml:space="preserve">
<style type="text/css">
	.st0{fill:#03275A;}
</style>
<g>
	<g>
		<path class="st0" d="M444,406.9c-1.9-1.9-4.4-2.9-7.1-2.9s-5.2,1.1-7.1,2.9c-1.9,1.9-2.9,4.4-2.9,7.1s1.1,5.2,2.9,7.1
			c1.9,1.9,4.4,2.9,7.1,2.9s5.2-1.1,7.1-2.9c1.9-1.9,2.9-4.4,2.9-7.1S445.9,408.7,444,406.9z"/>
	</g>
</g>
<g>
	<g>
		<path class="st0" d="M193.5,435.9c-20.9,0-38,17-38,38c0,20.9,17,38,38,38c20.9,0,38-17,38-38S214.5,435.9,193.5,435.9z
			 M193.5,491.9c-9.9,0-18-8.1-18-18s8.1-18,18-18s18,8.1,18,18S203.4,491.9,193.5,491.9z"/>
	</g>
</g>
<g>
	<g>
		<path class="st0" d="M376.9,435.9c-20.9,0-38,17-38,38c0,20.9,17,38,38,38c20.9,0,38-17,38-38S397.8,435.9,376.9,435.9z
			 M376.9,491.9c-9.9,0-18-8.1-18-18s8.1-18,18-18s18,8.1,18,18S386.8,491.9,376.9,491.9z"/>
	</g>
</g>
<g>
	<g>
		<path class="st0" d="M467.4,264.5c-5.4-1-10.7,2.5-11.7,7.9l-14.5,75.4c-0.9,4.7-5,8.1-9.8,8.1H142.9l-39.2-170.3h102.8
			c5.5,0,10-4.5,10-10s-4.5-10-10-10H99.1l-10.7-46.4C85.3,105.6,73.3,96,59.2,96H10c-5.5,0-10,4.5-10,10s4.5,10,10,10h49.2
			c4.7,0,8.7,3.2,9.7,7.8l67.2,292.4c1,4.5,5.1,7.8,9.7,7.8h255c5.5,0,10-4.5,10-10c0-5.5-4.5-10-10-10h-247l-6.4-28h283.9
			c14.4,0,26.7-10.2,29.5-24.3l14.5-75.4C476.4,270.8,472.8,265.5,467.4,264.5z"/>
	</g>
</g>
<g>
	<g>
		<path class="st0" d="M508.1,135.1c6.4-10.3,4.8-23.5-3.9-32l-10-9.8c-1.2-1.2-1.9-2.9-1.7-4.6l1-14c0.9-12.1-6.7-23.1-18.3-26.6
			l-13.2-4c-1.7-0.5-3-1.7-3.7-3.3l-5.5-12.8C448,17,435.9,10.6,424.1,13l-13.4,2.6c-1.7,0.3-3.5-0.1-4.8-1.2l-10.7-8.6
			c-9.4-7.6-23.1-7.6-32.5,0L352,14.4c-1.4,1.1-3.1,1.5-4.8,1.2L333.8,13c-11.8-2.3-23.9,4-28.7,15.1l-5.5,12.8
			c-0.7,1.6-2,2.8-3.7,3.3l-13.2,4c-11.7,3.5-19.2,14.4-18.3,26.6l1,14c0.1,1.7-0.5,3.4-1.7,4.6l-10,9.8c-8.6,8.5-10.2,21.6-3.9,32
			l7.4,12c0.9,1.5,1.1,3.2,0.6,4.9l-4.3,13.4c-3.7,11.6,1,23.9,11.4,30.1l12,7.1c1.5,0.9,2.5,2.4,2.8,4.1l2.4,13.8
			c2.1,12,12,20.9,24.2,21.5l13.7,0.7c1.7,0.1,3.3,0.9,4.4,2.3l8.4,11c5,6.6,12.8,10.2,20.7,10.2c3.7,0,7.4-0.8,10.9-2.4l12.4-5.8
			c1.6-0.7,3.4-0.7,5,0l12.4,5.8c11,5.1,24.2,1.8,31.5-7.8l8.4-11c1-1.4,2.6-2.2,4.4-2.3l13.7-0.7c12.2-0.6,22.1-9.4,24.2-21.5
			l2.4-13.8c0.3-1.7,1.3-3.2,2.8-4.1l12-7.1c10.4-6.2,15.1-18.6,11.4-30.1l-4.3-13.4c-0.5-1.6-0.3-3.4,0.6-4.9L508.1,135.1z
			 M491.1,124.6l-7.4,12c-4,6.4-4.9,14.3-2.6,21.5l4.3,13.4c0.8,2.6-0.2,5.4-2.6,6.8l-12,7.1c-6.5,3.9-11,10.4-12.3,17.9l-2.4,13.8
			c-0.5,2.7-2.7,4.7-5.5,4.9l-13.7,0.7c-7.6,0.4-14.7,4.1-19.3,10.2l-8.4,11c-1.7,2.2-4.7,2.9-7.1,1.8l-12.4-5.8
			c-7-3.2-14.9-3.2-21.9,0l-12.4,5.8c-2.5,1.2-5.5,0.4-7.1-1.8l-8.4-11c-4.6-6.1-11.7-9.8-19.3-10.2l-13.7-0.7
			c-2.8-0.1-5-2.1-5.5-4.9l-2.4-13.8c-1.3-7.5-5.8-14-12.3-17.9l-12-7.1c-2.4-1.4-3.4-4.2-2.6-6.8l4.3-13.4c2.3-7.2,1.4-15-2.6-21.5
			l-7.4-12c-1.4-2.3-1.1-5.3,0.9-7.2l10-9.8c5.4-5.3,8.2-12.7,7.6-20.3l-1-14c-0.2-2.8,1.5-5.2,4.2-6l13.2-4
			c7.3-2.2,13.2-7.5,16.3-14.5l5.5-12.8c0.9-2.2,3.1-3.5,5.4-3.5c0.4,0,0.7,0,1.1,0.1l13.4,2.6c7.5,1.5,15.3-0.4,21.2-5.3l10.7-8.6
			c2.1-1.7,5.2-1.7,7.4,0l10.7,8.6c6,4.8,13.7,6.7,21.2,5.3l13.4-2.6c2.7-0.5,5.4,0.9,6.5,3.4l5.5,12.8c3,7,9,12.3,16.3,14.5l13.2,4
			c2.6,0.8,4.3,3.3,4.2,6l-1,14c-0.5,7.6,2.2,14.9,7.6,20.3l10,9.8C492.2,119.3,492.5,122.3,491.1,124.6z"/>
	</g>
</g>
<g>
	<g>
		<path class="st0" d="M402.1,87.8c-4.8-2.7-10.9-1-13.6,3.8l-46.4,82.1c-2.7,4.8-1,10.9,3.8,13.6c1.6,0.9,3.2,1.3,4.9,1.3
			c3.5,0,6.9-1.8,8.7-5.1l46.4-82.1C408.6,96.6,406.9,90.5,402.1,87.8z"/>
	</g>
</g>
<g>
	<g>
		<path class="st0" d="M409.1,140.3c-14.3,0-26,11.7-26,26s11.7,26,26,26s26-11.7,26-26S423.4,140.3,409.1,140.3z M409.1,172.4
			c-3.3,0-6-2.7-6-6s2.7-6,6-6s6,2.7,6,6S412.4,172.4,409.1,172.4z"/>
	</g>
</g>
<g>
	<g>
		<path class="st0" d="M348.8,73.9c-14.3,0-26,11.7-26,26s11.7,26,26,26s26-11.7,26-26S363.1,73.9,348.8,73.9z M348.8,105.9
			c-3.3,0-6-2.7-6-6s2.7-6,6-6s6,2.7,6,6C354.8,103.2,352.1,105.9,348.8,105.9z"/>
	</g>
</g>
</svg>
