<?xml version="1.0" encoding="utf-8"?>
<!-- Generator: Adobe Illustrator 23.0.6, SVG Export Plug-In . SVG Version: 6.00 Build 0)  -->
<svg version="1.1" id="Camada_1" xmlns="http://www.w3.org/2000/svg" xmlns:xlink="http://www.w3.org/1999/xlink" x="0px" y="0px"
	 viewBox="0 0 100.6 100.6" style="enable-background:new 0 0 100.6 100.6;" xml:space="preserve">
<style type="text/css">
	.st0{fill:#F0F0F0;}
</style>
<path id="Path_1" class="st0" d="M99.4,93.5L70.8,64.9c13.8-17.1,11.2-42.2-5.9-56s-42.2-11.2-56,5.9s-11.2,42.2,5.9,56
	c14.6,11.8,35.5,11.8,50.1,0l28.6,28.6c1.6,1.6,4.3,1.6,5.9,0S101,95.1,99.4,93.5z M39.9,71.3c-17.3,0-31.4-14.1-31.4-31.4
	S22.6,8.5,39.9,8.5s31.4,14.1,31.4,31.4S57.3,71.3,39.9,71.3L39.9,71.3z"/>
</svg>
