<?xml version="1.0" encoding="utf-8"?>
<!-- Generator: Adobe Illustrator 23.0.6, SVG Export Plug-In . SVG Version: 6.00 Build 0)  -->
<svg version="1.1" id="Layer_1" xmlns="http://www.w3.org/2000/svg" xmlns:xlink="http://www.w3.org/1999/xlink" x="0px" y="0px"
	 viewBox="0 0 307.1 504" style="enable-background:new 0 0 307.1 504;" xml:space="preserve">
<style type="text/css">
	.st0{fill:#F34605;}
</style>
<g>
	<g>
		<g>
			<path class="st0" d="M283.6,452.8L283.6,452.8l-0.1-71.9c0-24.3-15.6-54.7-35.1-69.1l-75.1-55.2v-9.4l75.1-55.2
				c19.6-14.4,35.1-44.8,35.1-69.1V51.2h0.1c13,0,23.5-10.6,23.5-23.6v-3.9c0-13-10.5-23.6-23.5-23.6H23.6C10.6,0,0,10.6,0,23.6v3.9
				c0,13,10.6,23.6,23.6,23.6l0.1,71.9c0,24.3,15.3,54.6,34.9,69l75.2,55.3v9.3l-75.3,55.3c-19.6,14.4-35,44.7-35,69v71.9h0
				c-13,0-23.6,10.6-23.6,23.6v3.9c0,13,10.6,23.6,23.6,23.6h259.9c13,0,23.5-10.6,23.5-23.6v-3.9
				C307.1,463.4,296.6,452.8,283.6,452.8z M267.7,452.8h-19.7v-61.8c0-17.9-11.3-40.4-25.7-51l-63.9-47.1c-2.8-2.1-6.5-2.1-9.3,0
				l-64.2,47.2c-14.5,10.6-25.8,33-25.8,51v61.8H39.4V381c0-19.2,13.1-45,28.6-56.3l78.5-57.6c2-1.5,3.2-3.8,3.2-6.3v-17.3
				c0-2.5-1.1-4.9-3.2-6.3l-78.5-57.6C52.5,168,39.4,142.2,39.4,123V51.2h228.4V123c0,19.2-13.3,45-28.7,56.4L160.8,237
				c-2,1.5-3.3,3.8-3.3,6.3v17.3c0,2.5,1.2,4.9,3.2,6.3l78.3,57.5c15.4,11.4,28.7,37.2,28.7,56.4L267.7,452.8L267.7,452.8z"/>
		</g>
	</g>
	<g>
		<g>
			<path class="st0" d="M225.2,155.2c-1.1-3.2-4.1-5.4-7.5-5.4l-128.2,0c-3.4,0-6.4,2.2-7.5,5.4c-1.1,3.2,0.1,6.8,2.8,8.8l64.3,47.2
				c1.4,1,3,1.5,4.7,1.5c1.6,0,3.3-0.5,4.7-1.5l63.9-47.1C225.1,161.9,226.3,158.4,225.2,155.2z"/>
		</g>
	</g>
</g>
</svg>
